<mxfile host="app.diagrams.net" modified="2024-06-06T08:05:07.703Z" agent="Mozilla/5.0 (Macintosh; Intel Mac OS X 10_15_7) AppleWebKit/537.36 (KHTML, like Gecko) Chrome/125.0.0.0 Safari/537.36" etag="9mXYzTlFS0lWZF3_uXhN" version="24.4.14" type="device">
  <diagram name="Pagina-1" id="EPOf3onOeZtG60hlJo-c">
    <mxGraphModel dx="1224" dy="626" grid="1" gridSize="10" guides="1" tooltips="1" connect="1" arrows="1" fold="1" page="1" pageScale="1" pageWidth="827" pageHeight="1169" math="0" shadow="0">
      <root>
        <mxCell id="0" />
        <mxCell id="1" parent="0" />
        <mxCell id="GCq1lQ_6NW7UgHst3mzW-1" value="" style="rounded=0;whiteSpace=wrap;html=1;" vertex="1" parent="1">
          <mxGeometry x="140" y="140" width="130" height="60" as="geometry" />
        </mxCell>
        <mxCell id="GCq1lQ_6NW7UgHst3mzW-2" value="Gebruiker" style="text;html=1;align=center;verticalAlign=middle;whiteSpace=wrap;rounded=0;" vertex="1" parent="1">
          <mxGeometry x="170" y="155" width="60" height="30" as="geometry" />
        </mxCell>
        <mxCell id="GCq1lQ_6NW7UgHst3mzW-3" value="" style="rounded=0;whiteSpace=wrap;html=1;" vertex="1" parent="1">
          <mxGeometry x="460" y="140" width="180" height="60" as="geometry" />
        </mxCell>
        <mxCell id="GCq1lQ_6NW7UgHst3mzW-4" value="Taak" style="text;html=1;align=center;verticalAlign=middle;whiteSpace=wrap;rounded=0;" vertex="1" parent="1">
          <mxGeometry x="510" y="155" width="60" height="30" as="geometry" />
        </mxCell>
        <mxCell id="GCq1lQ_6NW7UgHst3mzW-8" value="" style="rounded=0;whiteSpace=wrap;html=1;" vertex="1" parent="1">
          <mxGeometry x="455" y="230" width="190" height="200" as="geometry" />
        </mxCell>
        <mxCell id="GCq1lQ_6NW7UgHst3mzW-9" value="TaskId" style="text;html=1;align=center;verticalAlign=middle;whiteSpace=wrap;rounded=0;" vertex="1" parent="1">
          <mxGeometry x="465" y="230" width="72" height="50" as="geometry" />
        </mxCell>
        <mxCell id="GCq1lQ_6NW7UgHst3mzW-17" value="Description" style="text;html=1;align=center;verticalAlign=middle;whiteSpace=wrap;rounded=0;" vertex="1" parent="1">
          <mxGeometry x="465" y="260" width="72" height="50" as="geometry" />
        </mxCell>
        <mxCell id="GCq1lQ_6NW7UgHst3mzW-22" value="IsCompleted" style="text;html=1;align=center;verticalAlign=middle;whiteSpace=wrap;rounded=0;" vertex="1" parent="1">
          <mxGeometry x="465" y="290" width="72" height="50" as="geometry" />
        </mxCell>
        <mxCell id="GCq1lQ_6NW7UgHst3mzW-23" value="DueDate" style="text;html=1;align=center;verticalAlign=middle;whiteSpace=wrap;rounded=0;" vertex="1" parent="1">
          <mxGeometry x="465" y="320" width="72" height="50" as="geometry" />
        </mxCell>
        <mxCell id="GCq1lQ_6NW7UgHst3mzW-25" value="" style="endArrow=none;html=1;rounded=0;entryX=0;entryY=0.5;entryDx=0;entryDy=0;exitX=1;exitY=0.5;exitDx=0;exitDy=0;" edge="1" parent="1" source="GCq1lQ_6NW7UgHst3mzW-1" target="GCq1lQ_6NW7UgHst3mzW-3">
          <mxGeometry width="50" height="50" relative="1" as="geometry">
            <mxPoint x="330" y="220" as="sourcePoint" />
            <mxPoint x="380" y="170" as="targetPoint" />
          </mxGeometry>
        </mxCell>
        <mxCell id="GCq1lQ_6NW7UgHst3mzW-26" value="1" style="text;html=1;align=center;verticalAlign=middle;whiteSpace=wrap;rounded=0;" vertex="1" parent="1">
          <mxGeometry x="270" y="140" width="60" height="30" as="geometry" />
        </mxCell>
        <mxCell id="GCq1lQ_6NW7UgHst3mzW-27" value="*" style="text;html=1;align=center;verticalAlign=middle;whiteSpace=wrap;rounded=0;" vertex="1" parent="1">
          <mxGeometry x="400" y="140" width="60" height="30" as="geometry" />
        </mxCell>
      </root>
    </mxGraphModel>
  </diagram>
</mxfile>
